# xmcd
#
# Track frame offsets: 
#        150
#        25657
#        47068
#        63708
#        81281
#        98070
#        120938
#        157540
#
# Disc length: 2312 seconds
#
# Revision: 2
# Processed by: cddbd v1.5.2PL0 Copyright (c) Steve Scherf et al.
# Submitted via: ExactAudioCopy v0.99pb5
#
DISCID=53090608
DTITLE=Brooklyn Sounds - Brooklyn Sounds
DYEAR=2001
DGENRE=Salsa
TTITLE0=Sueltame Ya
TTITLE1=Mirame San Miguel
TTITLE2=La-Va-Eh
TTITLE3=Rain
TTITLE4=Guanguanco De Puerto Rico
TTITLE5=Perdicion
TTITLE6=Tolon
TTITLE7=En Las Tumbas
EXTD=YEAR: 2001
EXTT0=
EXTT1=
EXTT2=
EXTT3=
EXTT4=
EXTT5=
EXTT6=
EXTT7=
PLAYORDER=
